<svg width="80" height="80" viewBox="0 0 80 80" fill="none" xmlns="http://www.w3.org/2000/svg">
<g filter="url(#filter0_d_521_74)">
<circle cx="37" cy="37" r="35" fill="#DAF1F9"/>
<circle cx="37" cy="37" r="34.5" stroke="white"/>
</g>
<path d="M51.8004 24.025C52.0662 23.7625 52.0662 23.3688 51.8004 23.1063L51.7561 23.0625L47.9012 20.1313C47.7683 20.0438 47.6353 20 47.5024 20H32.9691C32.6147 20 32.3045 20.3063 32.3045 20.6562V25.4688C32.3045 25.8187 32.6147 26.125 32.9691 26.125H37.0012L33.7224 30.8063C33.5008 31.1125 33.5895 31.5062 33.8996 31.725C34.2098 31.9437 34.6086 31.8563 34.8301 31.55L38.5964 26.1688L41.6094 27.5687V30.5H40.1472C39.9256 30.5 39.7041 30.5875 39.6155 30.8063L30.6651 43.9312C30.5765 44.0187 30.5322 44.15 30.5765 44.2812V54.3438C30.5765 54.6937 30.8866 55 31.2411 55H49.4077C49.7622 55 50.0723 54.6937 50.0723 54.3438V31.1562C50.0723 30.8062 49.7622 30.5 49.4077 30.5H47.8126V28.0062L51.8004 24.025ZM31.8614 53.6875V45.375H48.6988V53.6875H31.8614ZM48.6988 44.0625H32.1716L40.5016 31.8125H48.6988V44.0625ZM42.9386 30.5V27.1312C42.9386 26.8687 42.8057 26.65 42.5398 26.5625L38.9951 24.9C38.9065 24.8563 38.8179 24.8563 38.7293 24.8563H33.6338V21.3125H47.2366L50.2939 23.6312L46.6606 27.2625C46.5276 27.3938 46.4833 27.5688 46.4833 27.7438V30.5H42.9386Z" fill="#007198"/>
<path d="M28.0958 25.25C28.7075 25.25 29.2035 24.7603 29.2035 24.1563C29.2035 23.5522 28.7075 23.0625 28.0958 23.0625C27.484 23.0625 26.988 23.5522 26.988 24.1563C26.988 24.7603 27.484 25.25 28.0958 25.25Z" fill="#007198"/>
<path d="M24.1077 28.3125C24.7195 28.3125 25.2154 27.8228 25.2154 27.2188C25.2154 26.6147 24.7195 26.125 24.1077 26.125C23.4959 26.125 23 26.6147 23 27.2188C23 27.8228 23.4959 28.3125 24.1077 28.3125Z" fill="#007198"/>
<path d="M24.1077 22.625C24.7195 22.625 25.2154 22.1353 25.2154 21.5312C25.2154 20.9272 24.7195 20.4375 24.1077 20.4375C23.4959 20.4375 23 20.9272 23 21.5312C23 22.1353 23.4959 22.625 24.1077 22.625Z" fill="#007198"/>
<defs>
<filter id="filter0_d_521_74" x="0" y="0" width="80" height="80" filterUnits="userSpaceOnUse" color-interpolation-filters="sRGB">
<feFlood flood-opacity="0" result="BackgroundImageFix"/>
<feColorMatrix in="SourceAlpha" type="matrix" values="0 0 0 0 0 0 0 0 0 0 0 0 0 0 0 0 0 0 127 0" result="hardAlpha"/>
<feOffset dx="3" dy="3"/>
<feGaussianBlur stdDeviation="2.5"/>
<feComposite in2="hardAlpha" operator="out"/>
<feColorMatrix type="matrix" values="0 0 0 0 0.0666667 0 0 0 0 0.0666667 0 0 0 0 0.0666667 0 0 0 0.25 0"/>
<feBlend mode="normal" in2="BackgroundImageFix" result="effect1_dropShadow_521_74"/>
<feBlend mode="normal" in="SourceGraphic" in2="effect1_dropShadow_521_74" result="shape"/>
</filter>
</defs>
</svg>
