<svg width="80" height="80" viewBox="0 0 80 80" fill="none" xmlns="http://www.w3.org/2000/svg">
<g filter="url(#filter0_d_521_76)">
<circle cx="37" cy="37" r="35" fill="#DAF1F9"/>
<circle cx="37" cy="37" r="34.5" stroke="white"/>
</g>
<path d="M33.1268 35.3266C29.5072 35.3266 26.5627 38.2683 26.5627 41.8842C26.5627 45.5001 29.5072 48.4419 33.1268 48.4419C36.7444 48.4419 39.6879 45.5001 39.6879 41.8842C39.6875 38.2683 36.7444 35.3266 33.1268 35.3266ZM33.1268 47.0216C30.2908 47.0216 27.984 44.7171 27.984 41.8842C27.984 39.0518 30.2913 36.7468 33.1268 36.7468C35.9608 36.7468 38.2666 39.0514 38.2666 41.8842C38.2662 44.7171 35.9608 47.0216 33.1268 47.0216Z" fill="#007198"/>
<path d="M19.3222 35.3266C18.9295 35.3266 18.6116 35.6442 18.6116 36.0367V47.7318C18.6116 48.1242 18.9295 48.4419 19.3222 48.4419C19.715 48.4419 20.0329 48.1242 20.0329 47.7318V36.0367C20.0329 35.6447 19.715 35.3266 19.3222 35.3266Z" fill="#007198"/>
<path d="M46.706 35.3266C46.3133 35.3266 45.9954 35.6442 45.9954 36.0367V47.7318C45.9954 48.1242 46.3133 48.4419 46.706 48.4419C47.0988 48.4419 47.4167 48.1242 47.4167 47.7318V36.0367C47.4167 35.6447 47.0983 35.3266 46.706 35.3266Z" fill="#007198"/>
<path d="M58.2894 23H23.7756C23.3828 23 23.0649 23.3177 23.0649 23.7101V27.1887H19.9101C19.5174 27.1887 19.1995 27.5064 19.1995 27.8988V31.7675H15.7106C15.3179 31.7675 15 32.0852 15 32.4776V51.2899C15 51.6823 15.3179 52 15.7106 52H50.2244C50.6172 52 50.9351 51.6823 50.9351 51.2899V47.4212H54.4239C54.8167 47.4212 55.1346 47.1035 55.1346 46.7111V43.2306H58.2894C58.6821 43.2306 59 42.9129 59 42.5205V23.7096C59 23.3181 58.6816 23 58.2894 23ZM49.5138 50.5803H16.4213V33.1882H49.5138V50.5803V50.5803ZM50.9351 46.0015V32.4781C50.9351 32.0856 50.6172 31.768 50.2244 31.768H20.6208V28.6094H53.7133V46.0015H50.9351V46.0015ZM57.5787 41.8108H55.1346V27.8988C55.1346 27.5064 54.8167 27.1887 54.4239 27.1887H24.4862V24.4202H57.5787V41.8108Z" fill="#007198"/>
<defs>
<filter id="filter0_d_521_76" x="0" y="0" width="80" height="80" filterUnits="userSpaceOnUse" color-interpolation-filters="sRGB">
<feFlood flood-opacity="0" result="BackgroundImageFix"/>
<feColorMatrix in="SourceAlpha" type="matrix" values="0 0 0 0 0 0 0 0 0 0 0 0 0 0 0 0 0 0 127 0" result="hardAlpha"/>
<feOffset dx="3" dy="3"/>
<feGaussianBlur stdDeviation="2.5"/>
<feComposite in2="hardAlpha" operator="out"/>
<feColorMatrix type="matrix" values="0 0 0 0 0.0666667 0 0 0 0 0.0666667 0 0 0 0 0.0666667 0 0 0 0.25 0"/>
<feBlend mode="normal" in2="BackgroundImageFix" result="effect1_dropShadow_521_76"/>
<feBlend mode="normal" in="SourceGraphic" in2="effect1_dropShadow_521_76" result="shape"/>
</filter>
</defs>
</svg>
