<svg width="80" height="80" viewBox="0 0 80 80" fill="none" xmlns="http://www.w3.org/2000/svg">
<g filter="url(#filter0_d_521_75)">
<circle cx="37" cy="37" r="35" fill="#DAF1F9"/>
<circle cx="37" cy="37" r="34.5" stroke="white"/>
</g>
<path d="M43.2843 53.7647H25.3563V34.4118L35.9071 25.353L46.3754 34.173C46.3754 34.173 46.3754 34.1936 46.3754 34.2059V37.9118C46.3754 38.0756 46.4405 38.2327 46.5565 38.3485C46.6724 38.4644 46.8296 38.5294 46.9936 38.5294C47.1576 38.5294 47.3148 38.4644 47.4307 38.3485C47.5467 38.2327 47.6118 38.0756 47.6118 37.9118V35.2106L51.1273 38.1753C51.2525 38.2812 51.4146 38.3332 51.5781 38.3197C51.7416 38.3061 51.893 38.2283 51.999 38.1033C52.105 37.9782 52.157 37.8162 52.1435 37.6529C52.13 37.4896 52.052 37.3383 51.9269 37.2324L36.3027 24.0559C36.1907 23.9602 36.0482 23.9077 35.9009 23.9077C35.7535 23.9077 35.611 23.9602 35.4991 24.0559L20.2128 37.1912C20.0882 37.3004 20.0122 37.4546 20.0013 37.6198C19.9905 37.7851 20.0458 37.9479 20.1551 38.0724C20.2645 38.1969 20.4188 38.2729 20.5842 38.2837C20.7496 38.2945 20.9125 38.2392 21.0371 38.13L24.1199 35.4659V54.3823C24.1199 54.5462 24.1851 54.7033 24.301 54.8191C24.4169 54.9349 24.5742 55 24.7381 55H43.2843C43.4483 55 43.6056 54.9349 43.7215 54.8191C43.8374 54.7033 43.9026 54.5462 43.9026 54.3823C43.9026 54.2185 43.8374 54.0614 43.7215 53.9456C43.6056 53.8298 43.4483 53.7647 43.2843 53.7647Z" fill="#007198"/>
<path d="M53.3818 46.9006C52.626 46.9076 51.8766 46.7609 51.1794 46.4692C50.4822 46.1775 49.8517 45.7471 49.3264 45.2041C48.3111 44.1695 47.7026 42.8043 47.6119 41.3583C47.6119 41.2759 47.6119 41.1977 47.6119 41.1153C47.61 41.0462 47.5961 40.9779 47.5707 40.9135C47.5482 40.7666 47.474 40.6324 47.3615 40.535C47.249 40.4377 47.1054 40.3836 46.9566 40.3824C46.7955 40.3867 46.6425 40.4536 46.5301 40.569C46.4177 40.6844 46.3548 40.839 46.3549 41C46.3549 41.1194 46.3549 41.2388 46.3549 41.3624C46.2477 44.3806 43.6018 46.8306 40.3335 46.8635H40.2635H40.1934C40.0294 46.8635 39.8722 46.9286 39.7563 47.0444C39.6403 47.1603 39.5752 47.3174 39.5752 47.4812C39.5752 47.645 39.6403 47.8021 39.7563 47.9179C39.8722 48.0338 40.0294 48.0988 40.1934 48.0988V48.0988C41.779 48.1144 43.2965 48.745 44.4254 49.8576C45.5543 50.9701 46.2062 52.4774 46.2436 54.0612C46.2615 54.2427 46.3392 54.4132 46.4645 54.5458C46.5898 54.6785 46.7556 54.7658 46.936 54.7941C47.0999 54.7941 47.2572 54.729 47.3731 54.6132C47.4891 54.4974 47.5542 54.3403 47.5542 54.1765C47.5212 50.8824 50.0847 48.1729 53.2252 48.1359H53.3818C53.5458 48.1359 53.703 48.0708 53.819 47.955C53.9349 47.8392 54 47.6821 54 47.5182C54 47.3544 53.9349 47.1973 53.819 47.0815C53.703 46.9657 53.5458 46.9006 53.3818 46.9006V46.9006ZM46.8824 51.2941C46.1464 49.6348 44.8266 48.303 43.1732 47.5512C44.8507 46.8787 46.2132 45.5997 46.9896 43.9688C47.3429 44.7492 47.8328 45.4603 48.4362 46.0688C49.0296 46.6705 49.7279 47.1589 50.4969 47.51C48.8558 48.2685 47.564 49.6209 46.8824 51.2941Z" fill="#007198"/>
<path d="M22.6777 25.0895H22.7189C23.5867 25.1104 24.4133 25.4641 25.0271 26.0774C25.641 26.6907 25.9951 27.5165 26.016 28.3836C26.029 28.557 26.1033 28.7201 26.2256 28.8438C26.3479 28.9675 26.5103 29.0437 26.6836 29.0589V29.0589C26.7648 29.0578 26.845 29.0408 26.9196 29.0087C26.9942 28.9767 27.0617 28.9303 27.1184 28.8722C27.175 28.814 27.2197 28.7453 27.2497 28.67C27.2798 28.5946 27.2947 28.5141 27.2936 28.433C27.268 27.5798 27.5813 26.751 28.165 26.1277C28.7487 25.5044 29.5556 25.1371 30.4094 25.1059H30.5083C30.6722 25.1059 30.8295 25.0409 30.9454 24.925C31.0614 24.8092 31.1265 24.6521 31.1265 24.4883C31.1265 24.3245 31.0614 24.1674 30.9454 24.0515C30.8295 23.9357 30.6722 23.8706 30.5083 23.8706C30.0931 23.8776 29.681 23.7985 29.2979 23.6383C28.9149 23.4782 28.5692 23.2404 28.2827 22.9401C27.7233 22.3707 27.3869 21.6197 27.3348 20.8236C27.3348 20.7742 27.3348 20.7289 27.3348 20.6795C27.3335 20.6207 27.3238 20.5625 27.306 20.5065C27.2814 20.3633 27.2065 20.2336 27.0946 20.1407C26.9828 20.0479 26.8414 19.998 26.696 20.0001C26.6148 20.0011 26.5346 20.0182 26.4601 20.0502C26.3855 20.0823 26.3179 20.1287 26.2613 20.1868C26.2046 20.2449 26.16 20.3136 26.1299 20.3889C26.0999 20.4643 26.085 20.5448 26.086 20.6259C26.086 20.7001 26.086 20.7701 26.086 20.8401C26.021 21.6711 25.6403 22.4459 25.0219 23.0055C24.4035 23.5652 23.5943 23.8673 22.7601 23.8501H22.6612C22.4972 23.8501 22.34 23.9151 22.224 24.031C22.1081 24.1468 22.043 24.3039 22.043 24.4677C22.043 24.6315 22.1081 24.7886 22.224 24.9044C22.34 25.0203 22.4972 25.0853 22.6612 25.0853L22.6777 25.0895ZM26.7125 22.9071C26.9009 23.2334 27.1294 23.535 27.3925 23.8048C27.6465 24.0652 27.9316 24.2934 28.2415 24.4842C27.5688 24.898 27.0173 25.4817 26.6424 26.1765C26.4311 25.8128 26.1719 25.479 25.8717 25.1842C25.6112 24.933 25.3221 24.7133 25.0104 24.5295C25.7107 24.1477 26.2979 23.5881 26.7125 22.9071V22.9071Z" fill="#007198"/>
<path d="M32.981 36.0588C32.817 36.0588 32.6598 36.1239 32.5439 36.2397C32.4279 36.3556 32.3628 36.5127 32.3628 36.6765V43.2647C32.3628 43.4285 32.4279 43.5856 32.5439 43.7014C32.6598 43.8173 32.817 43.8824 32.981 43.8824H39.5752C39.7392 43.8824 39.8964 43.8173 40.0124 43.7014C40.1283 43.5856 40.1934 43.4285 40.1934 43.2647V36.6765C40.1934 36.5127 40.1283 36.3556 40.0124 36.2397C39.8964 36.1239 39.7392 36.0588 39.5752 36.0588H32.981ZM38.957 42.6471H33.5992V37.2941H38.957V42.6471Z" fill="#007198"/>
<defs>
<filter id="filter0_d_521_75" x="0" y="0" width="80" height="80" filterUnits="userSpaceOnUse" color-interpolation-filters="sRGB">
<feFlood flood-opacity="0" result="BackgroundImageFix"/>
<feColorMatrix in="SourceAlpha" type="matrix" values="0 0 0 0 0 0 0 0 0 0 0 0 0 0 0 0 0 0 127 0" result="hardAlpha"/>
<feOffset dx="3" dy="3"/>
<feGaussianBlur stdDeviation="2.5"/>
<feComposite in2="hardAlpha" operator="out"/>
<feColorMatrix type="matrix" values="0 0 0 0 0.0666667 0 0 0 0 0.0666667 0 0 0 0 0.0666667 0 0 0 0.25 0"/>
<feBlend mode="normal" in2="BackgroundImageFix" result="effect1_dropShadow_521_75"/>
<feBlend mode="normal" in="SourceGraphic" in2="effect1_dropShadow_521_75" result="shape"/>
</filter>
</defs>
</svg>
