<svg width="80" height="80" viewBox="0 0 80 80" fill="none" xmlns="http://www.w3.org/2000/svg">
<g filter="url(#filter0_d_521_77)">
<circle cx="37" cy="37" r="35" fill="#DAF1F9"/>
<circle cx="37" cy="37" r="34.5" stroke="white"/>
</g>
<path d="M46.6848 31.4707C46.6881 31.4352 46.6881 31.3996 46.6848 31.3641V24.8016C46.6848 21.6022 43.6109 19 39.837 19H35.6522C31.8783 19 28.8044 21.6022 28.8044 24.8016V40.6848H25.5707C25.4193 40.6848 25.2742 40.7449 25.1671 40.8519C25.0601 40.9589 25 41.1041 25 41.2554V44.3217C24.9996 44.4112 25.0203 44.4995 25.0604 44.5795C25.1004 44.6595 25.1587 44.7289 25.2305 44.7822C25.3024 44.8356 25.3857 44.8712 25.4739 44.8864C25.562 44.9016 25.6525 44.8958 25.738 44.8696H33.1794C33.3307 44.8696 33.4758 44.8094 33.5829 44.7024C33.6899 44.5954 33.75 44.4503 33.75 44.2989V41.2554C33.75 41.1041 33.6899 40.9589 33.5829 40.8519C33.4758 40.7449 33.3307 40.6848 33.1794 40.6848H29.9457V24.8016C29.9457 22.2299 32.506 20.1413 35.6522 20.1413H39.837C42.9832 20.1413 45.5435 22.2299 45.5435 24.8016V30.7516C43.609 29.738 41.4499 29.2289 39.2663 29.2717C39.115 29.2717 38.9698 29.3319 38.8628 29.4389C38.7558 29.5459 38.6957 29.691 38.6957 29.8424V45.0598C38.6957 45.2111 38.7558 45.3563 38.8628 45.4633C38.9698 45.5703 39.115 45.6304 39.2663 45.6304C39.4177 45.6304 39.5628 45.5703 39.6698 45.4633C39.7768 45.3563 39.837 45.2111 39.837 45.0598V30.413C45.6348 30.6261 49.3478 34.088 49.3478 39.3571V50.9565H45.3533C45.2019 50.9565 45.0568 51.0166 44.9498 51.1237C44.8427 51.2307 44.7826 51.3758 44.7826 51.5272C44.7826 51.6785 44.8427 51.8237 44.9498 51.9307C45.0568 52.0377 45.2019 52.0978 45.3533 52.0978H49.9185C50.0698 52.0978 50.215 52.0377 50.322 51.9307C50.429 51.8237 50.4891 51.6785 50.4891 51.5272V39.3533C50.4891 35.9978 49.0815 33.2435 46.6848 31.4707ZM32.6087 43.7283H26.1413V41.8261H32.6087V43.7283Z" fill="#007198"/>
<path d="M39.4566 47.1522C38.7794 47.1522 38.1175 47.353 37.5544 47.7292C36.9913 48.1054 36.5525 48.6402 36.2933 49.2658C36.0342 49.8915 35.9664 50.5799 36.0985 51.2441C36.2306 51.9082 36.5567 52.5183 37.0356 52.9972C37.5144 53.476 38.1245 53.8021 38.7887 53.9342C39.4528 54.0663 40.1413 53.9985 40.7669 53.7394C41.3925 53.4802 41.9273 53.0414 42.3035 52.4783C42.6797 51.9153 42.8805 51.2533 42.8805 50.5761C42.8805 49.668 42.5198 48.7971 41.8777 48.155C41.2356 47.5129 40.3647 47.1522 39.4566 47.1522V47.1522ZM39.4566 52.8587C39.0052 52.8587 38.5639 52.7248 38.1885 52.474C37.8131 52.2232 37.5205 51.8667 37.3478 51.4496C37.175 51.0325 37.1298 50.5736 37.2179 50.1308C37.306 49.688 37.5234 49.2813 37.8426 48.962C38.1618 48.6428 38.5685 48.4254 39.0113 48.3373C39.4541 48.2493 39.9131 48.2945 40.3301 48.4672C40.7472 48.64 41.1037 48.9326 41.3546 49.3079C41.6054 49.6833 41.7392 50.1246 41.7392 50.5761C41.7392 51.1815 41.4988 51.7621 41.0707 52.1901C40.6426 52.6182 40.062 52.8587 39.4566 52.8587V52.8587Z" fill="#007198"/>
<path d="M25.951 46.3913C25.7997 46.3913 25.6545 46.4514 25.5475 46.5584C25.4405 46.6655 25.3804 46.8106 25.3804 46.9619V50.7663C25.3804 50.9176 25.4405 51.0628 25.5475 51.1698C25.6545 51.2768 25.7997 51.3369 25.951 51.3369C26.1024 51.3369 26.2475 51.2768 26.3545 51.1698C26.4616 51.0628 26.5217 50.9176 26.5217 50.7663V46.9619C26.5217 46.8106 26.4616 46.6655 26.3545 46.5584C26.2475 46.4514 26.1024 46.3913 25.951 46.3913Z" fill="#007198"/>
<path d="M29.3749 46.3913C29.2235 46.3913 29.0784 46.4514 28.9713 46.5584C28.8643 46.6655 28.8042 46.8106 28.8042 46.9619V50.7663C28.8042 50.9176 28.8643 51.0628 28.9713 51.1698C29.0784 51.2768 29.2235 51.3369 29.3749 51.3369C29.5262 51.3369 29.6713 51.2768 29.7784 51.1698C29.8854 51.0628 29.9455 50.9176 29.9455 50.7663V46.9619C29.9455 46.8106 29.8854 46.6655 29.7784 46.5584C29.6713 46.4514 29.5262 46.3913 29.3749 46.3913V46.3913Z" fill="#007198"/>
<path d="M32.7987 46.3913C32.6473 46.3913 32.5022 46.4514 32.3952 46.5584C32.2881 46.6655 32.228 46.8106 32.228 46.9619V50.7663C32.228 50.9176 32.2881 51.0628 32.3952 51.1698C32.5022 51.2768 32.6473 51.3369 32.7987 51.3369C32.95 51.3369 33.0952 51.2768 33.2022 51.1698C33.3092 51.0628 33.3693 50.9176 33.3693 50.7663V46.9619C33.3693 46.8106 33.3092 46.6655 33.2022 46.5584C33.0952 46.4514 32.95 46.3913 32.7987 46.3913Z" fill="#007198"/>
<defs>
<filter id="filter0_d_521_77" x="0" y="0" width="80" height="80" filterUnits="userSpaceOnUse" color-interpolation-filters="sRGB">
<feFlood flood-opacity="0" result="BackgroundImageFix"/>
<feColorMatrix in="SourceAlpha" type="matrix" values="0 0 0 0 0 0 0 0 0 0 0 0 0 0 0 0 0 0 127 0" result="hardAlpha"/>
<feOffset dx="3" dy="3"/>
<feGaussianBlur stdDeviation="2.5"/>
<feComposite in2="hardAlpha" operator="out"/>
<feColorMatrix type="matrix" values="0 0 0 0 0.0666667 0 0 0 0 0.0666667 0 0 0 0 0.0666667 0 0 0 0.25 0"/>
<feBlend mode="normal" in2="BackgroundImageFix" result="effect1_dropShadow_521_77"/>
<feBlend mode="normal" in="SourceGraphic" in2="effect1_dropShadow_521_77" result="shape"/>
</filter>
</defs>
</svg>
